<?xml version="1.0" encoding="UTF-8"?>
<mxfile host="app.diagrams.net">
  <diagram name="Diagrama de Flujo">
    <mxGraphModel dx="1437" dy="796" grid="1" gridSize="10" guides="1" tooltips="1" connect="1" arrows="1" fold="1" page="1" pageScale="1" pageWidth="827" pageHeight="1169" math="0" shadow="0">
      <root>
        <mxCell id="0" />
        <mxCell id="1" parent="0" />
        <mxCell id="2" value="Inicio" style="ellipse;whiteSpace=wrap;html=1;" vertex="1" parent="1">
          <mxGeometry x="350" y="50" width="80" height="40" as="geometry" />
        </mxCell>
        <mxCell id="3" value="Leer Comandos" style="rounded=0;whiteSpace=wrap;html=1;" vertex="1" parent="1">
          <mxGeometry x="350" y="130" width="120" height="40" as="geometry" />
        </mxCell>
        <mxCell id="4" value="Comando 'Add'?" style="rhombus;whiteSpace=wrap;html=1;" vertex="1" parent="1">
          <mxGeometry x="350" y="210" width="120" height="60" as="geometry" />
        </mxCell>
        <mxCell id="5" value="Verificar formato de fecha" style="rounded=0;whiteSpace=wrap;html=1;" vertex="1" parent="1">
          <mxGeometry x="200" y="310" width="160" height="40" as="geometry" />
        </mxCell>
        <mxCell id="6" value="Agregar evento a la BD" style="rounded=0;whiteSpace=wrap;html=1;" vertex="1" parent="1">
          <mxGeometry x="200" y="370" width="160" height="40" as="geometry" />
        </mxCell>
        <mxCell id="7" value="Comando 'Del'?" style="rhombus;whiteSpace=wrap;html=1;" vertex="1" parent="1">
          <mxGeometry x="350" y="310" width="120" height="60" as="geometry" />
        </mxCell>
        <mxCell id="8" value="Eliminar evento especÃ­fico de la BD" style="rounded=0;whiteSpace=wrap;html=1;" vertex="1" parent="1">
          <mxGeometry x="350" y="420" width="200" height="40" as="geometry" />
        </mxCell>
        <mxCell id="9" value="Eliminar todos los eventos de la fecha" style="rounded=0;whiteSpace=wrap;html=1;" vertex="1" parent="1">
          <mxGeometry x="350" y="480" width="200" height="40" as="geometry" />
        </mxCell>
        <mxCell id="10" value="Comando 'Find'?" style="rhombus;whiteSpace=wrap;html=1;" vertex="1" parent="1">
          <mxGeometry x="500" y="210" width="120" height="60" as="geometry" />
        </mxCell>
        <mxCell id="11" value="Buscar y mostrar eventos de la fecha" style="rounded=0;whiteSpace=wrap;html=1;" vertex="1" parent="1">
          <mxGeometry x="500" y="310" width="200" height="40" as="geometry" />
        </mxCell>
        <mxCell id="12" value="Comando 'Print'?" style="rhombus;whiteSpace=wrap;html=1;" vertex="1" parent="1">
          <mxGeometry x="650" y="210" width="120" height="60" as="geometry" />
        </mxCell>
        <mxCell id="13" value="Imprimir todos los eventos de la BD" style="rounded=0;whiteSpace=wrap;html=1;" vertex="1" parent="1">
          <mxGeometry x="650" y="310" width="200" height="40" as="geometry" />
        </mxCell>
        <mxCell id="14" value="Comando desconocido" style="rhombus;whiteSpace=wrap;html=1;" vertex="1" parent="1">
          <mxGeometry x="800" y="210" width="120" height="60" as="geometry" />
        </mxCell>
        <mxCell id="15" value="Mostrar error" style="rounded=0;whiteSpace=wrap;html=1;" vertex="1" parent="1">
          <mxGeometry x="800" y="310" width="160" height="40" as="geometry" />
        </mxCell>
        <mxCell id="16" value="Fin" style="ellipse;whiteSpace=wrap;html=1;" vertex="1" parent="1">
          <mxGeometry x="500" y="550" width="80" height="40" as="geometry" />
        </mxCell>
        <mxCell id="17" edge="1" parent="1" source="2" target="3">
          <mxGeometry relative="1" as="geometry" />
        </mxCell>
        <mxCell id="18" edge="1" parent="1" source="3" target="4">
          <mxGeometry relative="1" as="geometry" />
        </mxCell>
        <mxCell id="19" edge="1" parent="1" source="4" target="5">
          <mxGeometry relative="1" as="geometry" />
        </mxCell>
        <mxCell id="20" edge="1" parent="1" source="5" target="6">
          <mxGeometry relative="1" as="geometry" />
        </mxCell>
        <mxCell id="21" edge="1" parent="1" source="4" target="7">
          <mxGeometry relative="1" as="geometry" />
        </mxCell>
        <mxCell id="22" edge="1" parent="1" source="7" target="8">
          <mxGeometry relative="1" as="geometry" />
        </mxCell>
        <mxCell id="23" edge="1" parent="1" source="7" target="9">
          <mxGeometry relative="1" as="geometry" />
        </mxCell>
        <mxCell id="24" edge="1" parent="1" source="4" target="10">
          <mxGeometry relative="1" as="geometry" />
        </mxCell>
        <mxCell id="25" edge="1" parent="1" source="10" target="11">
          <mxGeometry relative="1" as="geometry" />
        </mxCell>
        <mxCell id="26" edge="1" parent="1" source="4" target="12">
          <mxGeometry relative="1" as="geometry" />
        </mxCell>
        <mxCell id="27" edge="1" parent="1" source="12" target="13">
          <mxGeometry relative="1" as="geometry" />
        </mxCell>
        <mxCell id="28" edge="1" parent="1" source="4" target="14">
          <mxGeometry relative="1" as="geometry" />
        </mxCell>
        <mxCell id="29" edge="1" parent="1" source="14" target="15">
          <mxGeometry relative="1" as="geometry" />
        </mxCell>
        <mxCell id="30" edge="1" parent="1" source="7" target="16">
          <mxGeometry relative="1" as="geometry" />
        </mxCell>
        <mxCell id="31" edge="1" parent="1" source="8" target="16">
          <mxGeometry relative="1" as="geometry" />
        </mxCell>
        <mxCell id="32" edge="1" parent="1" source="9" target="16">
          <mxGeometry relative="1" as="geometry" />
        </mxCell>
        <mxCell id="33" edge="1" parent="1" source="11" target="16">
          <mxGeometry relative="1" as="geometry" />
        </mxCell>
        <mxCell id="34" edge="1" parent="1" source="13" target="16">
          <mxGeometry relative="1" as="geometry" />
        </mxCell>
        <mxCell id="35" edge="1" parent="1" source="15" target="16">
          <mxGeometry relative="1" as="geometry" />
        </mxCell>
      </root>
    </mxGraphModel>
  </diagram>
</mxfile>
